<?xml version="1.0" encoding="UTF-8"?>
<svg version="1.1" xmlns="http://www.w3.org/2000/svg" width="512" height="512">
<path d="M0 0 C1.82724609 0.56074219 1.82724609 0.56074219 3.69140625 1.1328125 C27.08278355 8.88714394 50.12178929 24.18268394 64 45 C67.29679951 44.61665122 70.41931439 44.16269582 73.62109375 43.265625 C94.18034348 37.59779543 114.81684401 40.77563212 133.37109375 50.8671875 C151.46324998 61.22031244 162.46169692 77.76793018 168.08984375 97.40625 C169.69864858 103.75861241 170.15689363 109.60806761 170.125 116.125 C170.12886719 116.92292969 170.13273437 117.72085938 170.13671875 118.54296875 C170.13478516 119.70119141 170.13478516 119.70119141 170.1328125 120.8828125 C170.13168457 121.57777832 170.13055664 122.27274414 170.12939453 122.98876953 C169.99384145 125.09572476 169.57230879 126.97162851 169 129 C169.83144531 129.0928125 170.66289062 129.185625 171.51953125 129.28125 C188.48311117 132.78439108 203.77695822 146.23727591 213.16015625 160.21875 C224.08364102 177.90259088 227.92880004 198.72014448 224.38671875 219.28125 C221.08648417 232.8892657 214.49420463 245.71185492 205 256 C204.57235352 256.47920898 204.14470703 256.95841797 203.70410156 257.45214844 C190.47643119 272.17341603 176.3325291 278.71327877 156.49755859 279.81030273 C149.00123128 280.16384516 141.50244288 280.10532954 134 280.0625 C132.4348973 280.0574649 130.86979299 280.05290562 129.3046875 280.04882812 C125.53641734 280.03800474 121.76822743 280.02085616 118 280 C118.06713636 287.27775397 118.15699703 294.5549765 118.26245117 301.83227539 C118.29564804 304.30649492 118.32369618 306.78078922 118.34643555 309.25512695 C118.38007701 312.81754334 118.43239987 316.37927772 118.48828125 319.94140625 C118.49786613 321.59336754 118.49786613 321.59336754 118.50764465 323.27870178 C118.62118214 329.24720344 118.99100311 333.78118088 122 339 C126.71110904 342.14073936 131.73356766 341.60024541 137.28686523 341.70019531 C138.63262189 341.7332837 139.97802883 341.78784078 141.32202148 341.86425781 C145.71672627 342.11245477 149.73409087 342.14284314 154 341 C156.32328042 338.63362647 157.51890014 336.53246996 158.82543945 333.49682617 C161.28623332 328.26578504 166.62926757 325.43039198 171.75 323.125 C179.73112017 320.51157437 188.10609042 321.20556394 195.6796875 324.67578125 C203.87087235 329.35054836 208.06393718 335.19181154 211 344 C211.86779066 355.06788744 210.70619385 362.63715527 203.75 371.3125 C199.05924259 376.38741427 192.97774721 379.58156854 186.06640625 380.30859375 C176.23916822 380.67013093 168.53710146 378.90115713 161.02734375 372.25390625 C157.78599391 368.67806823 154 363.98441328 154 359 C153.07775635 359.02094727 152.1555127 359.04189453 151.20532227 359.06347656 C147.74428069 359.13213681 144.28397524 359.18203229 140.82250977 359.21972656 C139.33183282 359.23969458 137.8412327 359.2668792 136.35083008 359.30175781 C125.97840132 359.53820607 118.58212835 358.64985315 109.75 352.875 C103.0857922 345.90787366 100.86422088 337.84190513 100.88647461 328.36181641 C100.88655014 327.28114899 100.88662567 326.20048157 100.88670349 325.08706665 C100.89186478 323.93685028 100.89702606 322.78663391 100.90234375 321.6015625 C100.90446617 319.81641739 100.90446617 319.81641739 100.90663147 317.99520874 C100.9122158 314.20511328 100.92476549 310.41507752 100.9375 306.625 C100.94251702 304.0507821 100.94707958 301.47656328 100.95117188 298.90234375 C100.96132794 292.60152115 100.98090658 286.30082719 101 280 C87.8 280 74.6 280 61 280 C61.06286323 296.86366823 61.13802947 313.7271287 61.23571491 330.59062481 C61.28067676 338.42067303 61.32009049 346.25067573 61.34643555 354.08081055 C61.36941253 360.90571756 61.40280708 367.73048055 61.44870156 374.55527335 C61.47263799 378.16883055 61.49136394 381.78224508 61.49761391 385.39587975 C61.50478701 389.43038634 61.53521803 393.46439649 61.56762695 397.4987793 C61.56547432 399.29520874 61.56547432 399.29520874 61.5632782 401.12792969 C61.57581635 402.22864304 61.58835449 403.32935638 61.60127258 404.46342468 C61.60588155 405.41748042 61.61049051 406.37153616 61.61523914 407.35450268 C62.07926317 410.54498919 63.10775701 412.40622711 65 415 C68.58422296 417.38948197 70.37232596 417.30233168 74.63671875 417.4140625 C75.93544922 417.45273437 77.23417969 417.49140625 78.57226562 417.53125 C79.94400573 417.56270517 81.31575061 417.59395251 82.6875 417.625 C84.07098785 417.66319197 85.45445223 417.70224442 86.83789062 417.7421875 C90.2251245 417.83660517 93.61235069 417.92218118 97 418 C97.29567871 417.05979004 97.59135742 416.11958008 97.89599609 415.15087891 C100.14724215 408.72571711 105.26876896 403.56096544 111.3125 400.5 C119.47106358 397.18126227 127.97141386 396.51399499 136.375 399.625 C144.57749425 403.44042277 149.3629609 408.73400205 153 417 C155.50337666 424.84497655 154.65387351 433.3577367 151.25390625 440.75 C147.1173136 448.17267093 141.23502872 452.99361601 133.08203125 455.6171875 C125.39654483 457.03027881 116.9558376 456.76669906 110 453 C104.25212011 448.87045522 99.91744045 444.46910708 97 438 C97 437.01 97 436.02 97 435 C96.07775635 435.02094727 95.1555127 435.04189453 94.20532227 435.06347656 C90.74428069 435.13213681 87.28397524 435.18203229 83.82250977 435.21972656 C82.33183282 435.23969458 80.8412327 435.2668792 79.35083008 435.30175781 C68.02820818 435.55986652 59.19024723 434.65158332 50.50390625 426.7109375 C45.62189575 421.15685802 43.87290726 414.71829983 43.87974548 407.4697876 C43.87768349 405.78291588 43.87768349 405.78291588 43.87557983 404.06196594 C43.87917511 402.83269882 43.88277039 401.6034317 43.88647461 400.33691406 C43.88632858 399.03910507 43.88618256 397.74129608 43.8860321 396.40415955 C43.88574522 392.84871082 43.89162434 389.29329584 43.89860606 385.73785496 C43.90485775 382.02093743 43.90544484 378.30401914 43.90663147 374.58709717 C43.90973943 367.55007022 43.91794561 360.5130588 43.92798096 353.47603869 C43.93915871 345.46400862 43.94465674 337.45197781 43.94967639 329.43994188 C43.96012866 312.95995216 43.97771775 296.47997806 44 280 C43.34773438 280.02320313 42.69546875 280.04640625 42.0234375 280.0703125 C41.14945312 280.08835937 40.27546875 280.10640625 39.375 280.125 C38.51648438 280.14820313 37.65796875 280.17140625 36.7734375 280.1953125 C34 280 34 280 28 278 C21.4 277.67 14.8 277.34 8 277 C8 334.75 8 392.5 8 452 C9.65 452.33 11.3 452.66 13 453 C20.26075177 457.17741883 25.04016684 462.90555108 27.60546875 470.8828125 C29.44540227 480.75651517 28.14493386 488.94201974 22.52734375 497.15234375 C17.33054958 503.74969237 11.53894884 507.43781547 3.15234375 508.4765625 C-5.06124794 508.92989427 -12.30359695 508.15107927 -19 503 C-25.42266469 497.20528023 -29.43031007 491.61036415 -30.30859375 482.9609375 C-30.64804473 474.17635751 -29.07637766 466.8013739 -23.75 459.6875 C-19.71186162 455.74113749 -15.37082768 452.79027589 -10 451 C-9.505 364.87 -9.505 364.87 -9 277 C-28.57090823 276.88716485 -28.57090823 276.88716485 -37 280 C-39.5546875 280.1953125 -39.5546875 280.1953125 -41.875 280.125 C-42.65617188 280.10695313 -43.43734375 280.08890625 -44.2421875 280.0703125 C-45.11230469 280.03550781 -45.11230469 280.03550781 -46 280 C-45.99723462 280.67715026 -45.99446924 281.35430052 -45.99162006 282.05197048 C-45.92527205 298.55357046 -45.87567661 315.05512801 -45.84456348 331.55683041 C-45.82911622 339.53704059 -45.80806782 347.51716155 -45.77368164 355.49731445 C-45.74371353 362.45548377 -45.72440944 369.41358845 -45.71773452 376.37182051 C-45.71383476 380.05375236 -45.70471489 383.73549934 -45.68280983 387.41737175 C-45.65851401 391.53475913 -45.65803475 395.65182821 -45.65942383 399.76928711 C-45.648638 400.98057785 -45.63785217 402.19186859 -45.6267395 403.43986511 C-45.66319175 413.44086732 -47.13378458 420.88260541 -54.09765625 428.2734375 C-60.32577656 433.92606415 -66.16996894 435.1302779 -74.390625 435.09765625 C-75.09523865 435.0962413 -75.79985229 435.09482635 -76.52581787 435.09336853 C-78.76725584 435.08778933 -81.00859243 435.07524073 -83.25 435.0625 C-84.77343605 435.05748231 -86.29687368 435.05291987 -87.8203125 435.04882812 C-91.54690772 435.03782674 -95.27344396 435.02057646 -99 435 C-99.14171631 435.78318604 -99.28343262 436.56637207 -99.42944336 437.37329102 C-100.89121454 444.10294275 -106.56802122 448.81531582 -111.875 452.7734375 C-119.15424899 456.97506283 -127.76154115 457.27696504 -135.8203125 455.3125 C-144.99640173 451.94512781 -149.96858346 447.07765617 -154.0546875 438.26953125 C-157.09033946 430.98145775 -157.11769825 423.1075799 -154.375 415.6875 C-150.58146666 407.43953902 -145.2951242 402.64985465 -137 399 C-130.23924711 396.80240537 -121.76092456 396.88274156 -115.1875 399.5625 C-107.86172524 403.38698535 -102.51440609 408.53188707 -99 416 C-99 416.66 -99 417.32 -99 418 C-94.96079096 417.95570959 -90.92290458 417.88573679 -86.88452148 417.79248047 C-85.51225093 417.76434625 -84.13982059 417.74309414 -82.76733398 417.72900391 C-80.78861506 417.70747269 -78.8102523 417.6587072 -76.83203125 417.609375 C-75.64327393 417.58842773 -74.4545166 417.56748047 -73.22973633 417.54589844 C-69.41561938 416.90122647 -67.74018147 415.67784054 -65 413 C-63.7250249 410.45004981 -63.86089403 408.64216546 -63.84178162 405.78622437 C-63.8319928 404.68122086 -63.82220398 403.57621735 -63.81211853 402.43772888 C-63.80636307 401.21997269 -63.8006076 400.00221649 -63.79467773 398.74755859 C-63.78477814 397.4695488 -63.77487854 396.191539 -63.76467896 394.87480164 C-63.73760125 391.36472155 -63.71660724 387.85462799 -63.69667697 384.34450102 C-63.67483506 380.67826081 -63.6474376 377.0120623 -63.62062073 373.34585571 C-63.57066952 366.40087393 -63.52573972 359.45586903 -63.48259836 352.51084197 C-63.43324671 344.60523533 -63.37832091 336.69967053 -63.32291877 328.79410434 C-63.20906145 312.52944004 -63.10296652 296.26473745 -63 280 C-76.2 280 -89.4 280 -103 280 C-102.96519531 283.85429687 -102.93039063 287.70859375 -102.89453125 291.6796875 C-102.87109683 295.43619039 -102.85290232 299.19268496 -102.83520508 302.94921875 C-102.82017169 305.54854003 -102.79973954 308.14783617 -102.77368164 310.74707031 C-102.73705899 314.49550605 -102.72021848 318.24360472 -102.70703125 321.9921875 C-102.69154739 323.14363251 -102.67606354 324.29507751 -102.66011047 325.48141479 C-102.65790539 336.18978447 -104.4438831 345.05780413 -112 353 C-118.19304447 357.90282687 -123.76717418 359.25786261 -131.5859375 359.1953125 C-132.63861313 359.19106766 -132.63861313 359.19106766 -133.71255493 359.18673706 C-135.93355028 359.17562512 -138.15412845 359.15053834 -140.375 359.125 C-141.88931705 359.11495854 -143.40364049 359.10583473 -144.91796875 359.09765625 C-148.61211258 359.07571554 -152.30601551 359.04124875 -156 359 C-156.29648438 359.928125 -156.59296875 360.85625 -156.8984375 361.8125 C-159.84164655 370.32901981 -165.70678506 374.42407104 -173.125 378.875 C-180.02572983 381.51816945 -189.07812517 381.17513014 -195.875 378.4375 C-204.83280545 373.68335744 -209.83204826 367.50385521 -213 358 C-213.86779066 346.93211256 -212.70619385 339.36284473 -205.75 330.6875 C-200.74599842 325.28533055 -194.64766192 322.41569997 -187.3359375 321.76171875 C-177.79488912 321.52256318 -169.74802097 323.4473201 -162.64916992 330.13720703 C-160.82116958 332.20199498 -159.60210671 334.27892144 -158.30078125 336.70703125 C-157.64783081 337.91516479 -157.64783081 337.91516479 -156.98168945 339.14770508 C-156.65773193 339.7589624 -156.33377441 340.37021973 -156 341 C-151.96166211 341.0992502 -147.92380128 341.17164562 -143.88452148 341.21972656 C-142.51199977 341.2397799 -141.13956283 341.26703028 -139.76733398 341.30175781 C-137.78927956 341.35054552 -135.81058881 341.37088876 -133.83203125 341.390625 C-132.04889526 341.4220459 -132.04889526 341.4220459 -130.22973633 341.45410156 C-126.32352427 340.90488738 -124.71246855 339.82689645 -122 337 C-120.93552132 333.90135529 -120.84899163 330.93949809 -120.79467773 327.68066406 C-120.77473251 326.61986633 -120.75478729 325.5590686 -120.73423767 324.46612549 C-120.71752518 323.32746033 -120.70081268 322.18879517 -120.68359375 321.015625 C-120.6524221 319.25952911 -120.6524221 319.25952911 -120.62062073 317.46795654 C-120.55524372 313.72869731 -120.49629509 309.98936795 -120.4375 306.25 C-120.39430353 303.7148365 -120.35068888 301.17968009 -120.30664062 298.64453125 C-120.19957441 292.4297616 -120.0977859 286.21492222 -120 280 C-121.27045166 280.00290039 -122.54090332 280.00580078 -123.84985352 280.00878906 C-134.21535628 280.02572791 -144.57477396 280.0155629 -154.9375 279.75 C-156.12150391 279.73582031 -157.30550781 279.72164063 -158.52539062 279.70703125 C-176.50123176 279.21454245 -190.2618742 272.36540956 -203 260 C-203.61488281 259.45859375 -204.22976562 258.9171875 -204.86328125 258.359375 C-213.84350542 250.18427437 -220.15986234 238.3848787 -224 227 C-224.31839844 226.06671875 -224.63679688 225.1334375 -224.96484375 224.171875 C-230.81327521 203.58108404 -227.41531553 181.30175322 -217.25390625 162.7578125 C-206.97288622 145.07283969 -190.67296742 133.96404348 -171.125 128.6875 C-166.43278729 127.48657731 -161.80357237 126.62041024 -157 126 C-156.96261719 124.69289062 -156.92523438 123.38578125 -156.88671875 122.0390625 C-155.6696213 86.46159394 -145.7379861 57.2812733 -121 31 C-120.47277344 30.40832031 -119.94554687 29.81664062 -119.40234375 29.20703125 C-106.07309431 14.85507725 -87.50312758 5.60882292 -69 0 C-67.16115234 -0.58974609 -67.16115234 -0.58974609 -65.28515625 -1.19140625 C-45.22972126 -6.96917647 -19.79775723 -6.35688742 0 0 Z " fill="#7DCFFB" transform="translate(257,4)"/>
<path d="M0 0 C1.82724609 0.56074219 1.82724609 0.56074219 3.69140625 1.1328125 C27.08278355 8.88714394 50.12178929 24.18268394 64 45 C67.29679951 44.61665122 70.41931439 44.16269582 73.62109375 43.265625 C94.18034348 37.59779543 114.81684401 40.77563212 133.37109375 50.8671875 C151.46324998 61.22031244 162.46169692 77.76793018 168.08984375 97.40625 C169.69864858 103.75861241 170.15689363 109.60806761 170.125 116.125 C170.12886719 116.92292969 170.13273437 117.72085938 170.13671875 118.54296875 C170.13478516 119.70119141 170.13478516 119.70119141 170.1328125 120.8828125 C170.13168457 121.57777832 170.13055664 122.27274414 170.12939453 122.98876953 C169.99384145 125.09572476 169.57230879 126.97162851 169 129 C169.83144531 129.0928125 170.66289062 129.185625 171.51953125 129.28125 C188.48311117 132.78439108 203.77695822 146.23727591 213.16015625 160.21875 C224.08364102 177.90259088 227.92880004 198.72014448 224.38671875 219.28125 C221.08648417 232.8892657 214.49420463 245.71185492 205 256 C204.57235352 256.47920898 204.14470703 256.95841797 203.70410156 257.45214844 C190.47643119 272.17341603 176.3325291 278.71327877 156.49755859 279.81030273 C149.00123128 280.16384516 141.50244288 280.10532954 134 280.0625 C132.4348973 280.0574649 130.86979299 280.05290562 129.3046875 280.04882812 C125.53641734 280.03800474 121.76822743 280.02085616 118 280 C118.06713636 287.27775397 118.15699703 294.5549765 118.26245117 301.83227539 C118.29564804 304.30649492 118.32369618 306.78078922 118.34643555 309.25512695 C118.38007701 312.81754334 118.43239987 316.37927772 118.48828125 319.94140625 C118.49786613 321.59336754 118.49786613 321.59336754 118.50764465 323.27870178 C118.62118214 329.24720344 118.99100311 333.78118088 122 339 C126.71110904 342.14073936 131.73356766 341.60024541 137.28686523 341.70019531 C138.63262189 341.7332837 139.97802883 341.78784078 141.32202148 341.86425781 C145.71672627 342.11245477 149.73409087 342.14284314 154 341 C156.32328042 338.63362647 157.51890014 336.53246996 158.82543945 333.49682617 C161.28623332 328.26578504 166.62926757 325.43039198 171.75 323.125 C179.73112017 320.51157437 188.10609042 321.20556394 195.6796875 324.67578125 C203.87087235 329.35054836 208.06393718 335.19181154 211 344 C211.86779066 355.06788744 210.70619385 362.63715527 203.75 371.3125 C199.05924259 376.38741427 192.97774721 379.58156854 186.06640625 380.30859375 C176.23916822 380.67013093 168.53710146 378.90115713 161.02734375 372.25390625 C157.78599391 368.67806823 154 363.98441328 154 359 C153.07775635 359.02094727 152.1555127 359.04189453 151.20532227 359.06347656 C147.74428069 359.13213681 144.28397524 359.18203229 140.82250977 359.21972656 C139.33183282 359.23969458 137.8412327 359.2668792 136.35083008 359.30175781 C125.97840132 359.53820607 118.58212835 358.64985315 109.75 352.875 C103.0857922 345.90787366 100.86422088 337.84190513 100.88647461 328.36181641 C100.88655014 327.28114899 100.88662567 326.20048157 100.88670349 325.08706665 C100.89186478 323.93685028 100.89702606 322.78663391 100.90234375 321.6015625 C100.90446617 319.81641739 100.90446617 319.81641739 100.90663147 317.99520874 C100.9122158 314.20511328 100.92476549 310.41507752 100.9375 306.625 C100.94251702 304.0507821 100.94707958 301.47656328 100.95117188 298.90234375 C100.96132794 292.60152115 100.98090658 286.30082719 101 280 C87.8 280 74.6 280 61 280 C61.06286323 296.86366823 61.13802947 313.7271287 61.23571491 330.59062481 C61.28067676 338.42067303 61.32009049 346.25067573 61.34643555 354.08081055 C61.36941253 360.90571756 61.40280708 367.73048055 61.44870156 374.55527335 C61.47263799 378.16883055 61.49136394 381.78224508 61.49761391 385.39587975 C61.50478701 389.43038634 61.53521803 393.46439649 61.56762695 397.4987793 C61.56547432 399.29520874 61.56547432 399.29520874 61.5632782 401.12792969 C61.57581635 402.22864304 61.58835449 403.32935638 61.60127258 404.46342468 C61.60588155 405.41748042 61.61049051 406.37153616 61.61523914 407.35450268 C62.07926317 410.54498919 63.10775701 412.40622711 65 415 C68.58422296 417.38948197 70.37232596 417.30233168 74.63671875 417.4140625 C75.93544922 417.45273437 77.23417969 417.49140625 78.57226562 417.53125 C79.94400573 417.56270517 81.31575061 417.59395251 82.6875 417.625 C84.07098785 417.66319197 85.45445223 417.70224442 86.83789062 417.7421875 C90.2251245 417.83660517 93.61235069 417.92218118 97 418 C97.29567871 417.05979004 97.59135742 416.11958008 97.89599609 415.15087891 C100.14724215 408.72571711 105.26876896 403.56096544 111.3125 400.5 C119.47106358 397.18126227 127.97141386 396.51399499 136.375 399.625 C144.57749425 403.44042277 149.3629609 408.73400205 153 417 C155.50337666 424.84497655 154.65387351 433.3577367 151.25390625 440.75 C147.1173136 448.17267093 141.23502872 452.99361601 133.08203125 455.6171875 C125.39654483 457.03027881 116.9558376 456.76669906 110 453 C104.25212011 448.87045522 99.91744045 444.46910708 97 438 C97 437.01 97 436.02 97 435 C96.07775635 435.02094727 95.1555127 435.04189453 94.20532227 435.06347656 C90.74428069 435.13213681 87.28397524 435.18203229 83.82250977 435.21972656 C82.33183282 435.23969458 80.8412327 435.2668792 79.35083008 435.30175781 C68.02820818 435.55986652 59.19024723 434.65158332 50.50390625 426.7109375 C45.62189575 421.15685802 43.87290726 414.71829983 43.87974548 407.4697876 C43.87768349 405.78291588 43.87768349 405.78291588 43.87557983 404.06196594 C43.87917511 402.83269882 43.88277039 401.6034317 43.88647461 400.33691406 C43.88632858 399.03910507 43.88618256 397.74129608 43.8860321 396.40415955 C43.88574522 392.84871082 43.89162434 389.29329584 43.89860606 385.73785496 C43.90485775 382.02093743 43.90544484 378.30401914 43.90663147 374.58709717 C43.90973943 367.55007022 43.91794561 360.5130588 43.92798096 353.47603869 C43.93915871 345.46400862 43.94465674 337.45197781 43.94967639 329.43994188 C43.96012866 312.95995216 43.97771775 296.47997806 44 280 C43.31873047 280.00870117 42.63746094 280.01740234 41.93554688 280.02636719 C41.03900391 280.03313477 40.14246094 280.03990234 39.21875 280.046875 C38.33123047 280.05557617 37.44371094 280.06427734 36.52929688 280.07324219 C33.32002906 279.98030972 30.8750135 279.43750675 28 278 C26.1829572 275.68740008 25.9967074 273.97789256 25.5625 271.0625 C26.02264957 267.84145301 26.75133756 266.27043753 29.12908363 264.04628372 C33.448387 261.63077393 38.81225391 262.33520529 43.61791992 262.38818359 C44.89981201 262.38251877 46.1817041 262.37685394 47.50244141 262.37101746 C50.28652317 262.35885286 53.0699918 262.36228832 55.8540554 262.37784958 C60.26382501 262.4022154 64.67306063 262.39064985 69.08283997 262.37417603 C76.86003056 262.34968902 84.63697772 262.3554742 92.41418457 262.36798096 C104.10317843 262.38655235 115.7921238 262.38158763 127.48108369 262.34794676 C131.85641643 262.33648908 136.2313574 262.34079564 140.60666788 262.35796714 C142.67916615 262.36399424 144.75153348 262.36322897 146.82403564 262.35957336 C149.33969286 262.35536287 151.85540161 262.36170174 154.37098694 262.38117981 C167.91795787 262.31724413 178.6115208 258.17157884 188.625 248.875 C201.67395449 234.76210198 208.69331634 218.12318537 208.33984375 198.8828125 C207.59651138 183.24507342 199.85206461 168.81695199 188.609375 158.1875 C184.67298545 154.88753271 180.56713004 152.33136912 176 150 C175.27167969 149.62230469 174.54335938 149.24460938 173.79296875 148.85546875 C168.59055056 146.35268378 163.33954315 144.99564241 157.69921875 143.80859375 C154.79588734 142.93885482 153.10989951 142.17923893 151 140 C150.57421875 137.66015625 150.57421875 137.66015625 150.6875 135.0625 C150.71199219 134.20785156 150.73648437 133.35320312 150.76171875 132.47265625 C151 130 151 130 151.49780273 128.13989258 C155.0922846 112.82359043 151.57036276 97.42196005 143.75 84.1875 C134.17900702 70.17062641 120.69256248 61.73122922 104.0625 58.4140625 C90.51580476 56.58249401 78.63848422 58.75619855 66.5703125 65.01171875 C63.45166621 66.21083351 61.31348512 66.44716398 58 66 C56.12890625 64.34765625 56.12890625 64.34765625 54.5625 62.0625 C53.98113281 61.24652344 53.39976562 60.43054688 52.80078125 59.58984375 C52.20652344 58.73519531 51.61226563 57.88054688 51 57 C49.76052408 55.36695853 48.51087593 53.74157567 47.25 52.125 C46.69828125 51.40570313 46.1465625 50.68640625 45.578125 49.9453125 C44.05362733 47.98354368 44.05362733 47.98354368 42.296875 46.3671875 C41 45 41 45 41 43 C40.13181641 42.61714844 40.13181641 42.61714844 39.24609375 42.2265625 C36.77307534 40.8760794 35.08958354 39.32815919 33.0625 37.375 C19.41641596 25.10238545 1.12970531 16.66872791 -17 14 C-18.23234375 13.81824219 -19.4646875 13.63648437 -20.734375 13.44921875 C-34.20702079 11.82819566 -47.94880009 12.25487307 -61 16 C-62.04800781 16.26683594 -63.09601563 16.53367187 -64.17578125 16.80859375 C-78.34422363 20.70102297 -90.71817808 27.65497154 -102 37 C-102.84949219 37.67417969 -103.69898438 38.34835938 -104.57421875 39.04296875 C-122.40466183 53.96231908 -134.15428527 77.27125624 -138 100 C-138.18993248 103.01594139 -138.12161444 105.99696666 -138.01953125 109.015625 C-137.98940208 110.69529778 -137.96013001 112.37498611 -137.93164062 114.0546875 C-137.8756943 116.66420162 -137.81180484 119.27291702 -137.73266602 121.88183594 C-137.66007645 124.4265166 -137.61894022 126.97021122 -137.58203125 129.515625 C-137.54995071 130.2927887 -137.51787018 131.06995239 -137.4848175 131.8706665 C-137.44734404 135.88156962 -137.82023 137.76252486 -140.26879883 140.99707031 C-142.94437946 142.95921061 -143.89983033 143.60812831 -147.1171875 143.53125 C-147.88168213 143.53406982 -148.64617676 143.53688965 -149.43383789 143.53979492 C-150.23942139 143.5266626 -151.04500488 143.51353027 -151.875 143.5 C-168.49440851 143.8145982 -182.44015444 149.98676422 -194.609375 161.390625 C-206.32915373 174.18280178 -210.49108471 189.8348174 -210.33984375 206.82421875 C-209.36162517 223.98160445 -200.40441847 239.50101354 -188 251 C-178.51628128 258.31677594 -168.50046971 262.10482653 -156.4907074 262.13803101 C-155.42108765 262.14348434 -154.3514679 262.14893768 -153.24943542 262.15455627 C-152.09131851 262.1555986 -150.9332016 262.15664093 -149.73999023 262.15771484 C-148.50844208 262.16279556 -147.27689392 262.16787628 -146.00802612 262.17311096 C-143.33819094 262.18379741 -140.66840703 262.19280292 -137.99856377 262.19923019 C-133.7750475 262.20995082 -129.55161015 262.2302041 -125.32814026 262.25234985 C-113.32141721 262.31414521 -101.31470059 262.3683248 -89.30786133 262.40136719 C-82.66969861 262.41971476 -76.03166994 262.44864554 -69.39360577 262.4893719 C-65.8840834 262.51042651 -62.37472977 262.52589708 -58.86514091 262.52817917 C-54.95349158 262.53072612 -51.04217406 262.55618902 -47.13061523 262.58349609 C-45.39040352 262.57898689 -45.39040352 262.57898689 -43.61503601 262.5743866 C-42.54823608 262.58547958 -41.48143616 262.59657257 -40.38230896 262.60800171 C-38.99609927 262.61296693 -38.99609927 262.61296693 -37.58188534 262.61803246 C-34.45313765 263.08090354 -32.55419605 264.16361322 -30 266 C-28.32359468 269.35281064 -28.63675546 272.69231965 -29.625 276.25 C-31.7452995 278.948563 -33.66887229 279.2732085 -37 280 C-38.57089902 280.04992793 -40.14324552 280.06406659 -41.71484375 280.046875 C-42.51913818 280.04010742 -43.32343262 280.03333984 -44.15209961 280.02636719 C-44.76190674 280.01766602 -45.37171387 280.00896484 -46 280 C-45.99723462 280.67715026 -45.99446924 281.35430052 -45.99162006 282.05197048 C-45.92527205 298.55357046 -45.87567661 315.05512801 -45.84456348 331.55683041 C-45.82911622 339.53704059 -45.80806782 347.51716155 -45.77368164 355.49731445 C-45.74371353 362.45548377 -45.72440944 369.41358845 -45.71773452 376.37182051 C-45.71383476 380.05375236 -45.70471489 383.73549934 -45.68280983 387.41737175 C-45.65851401 391.53475913 -45.65803475 395.65182821 -45.65942383 399.76928711 C-45.648638 400.98057785 -45.63785217 402.19186859 -45.6267395 403.43986511 C-45.66319175 413.44086732 -47.13378458 420.88260541 -54.09765625 428.2734375 C-60.32577656 433.92606415 -66.16996894 435.1302779 -74.390625 435.09765625 C-75.09523865 435.0962413 -75.79985229 435.09482635 -76.52581787 435.09336853 C-78.76725584 435.08778933 -81.00859243 435.07524073 -83.25 435.0625 C-84.77343605 435.05748231 -86.29687368 435.05291987 -87.8203125 435.04882812 C-91.54690772 435.03782674 -95.27344396 435.02057646 -99 435 C-99.14171631 435.78318604 -99.28343262 436.56637207 -99.42944336 437.37329102 C-100.89121454 444.10294275 -106.56802122 448.81531582 -111.875 452.7734375 C-119.15424899 456.97506283 -127.76154115 457.27696504 -135.8203125 455.3125 C-144.99640173 451.94512781 -149.96858346 447.07765617 -154.0546875 438.26953125 C-157.09033946 430.98145775 -157.11769825 423.1075799 -154.375 415.6875 C-150.58146666 407.43953902 -145.2951242 402.64985465 -137 399 C-130.23924711 396.80240537 -121.76092456 396.88274156 -115.1875 399.5625 C-107.86172524 403.38698535 -102.51440609 408.53188707 -99 416 C-99 416.66 -99 417.32 -99 418 C-94.96079096 417.95570959 -90.92290458 417.88573679 -86.88452148 417.79248047 C-85.51225093 417.76434625 -84.13982059 417.74309414 -82.76733398 417.72900391 C-80.78861506 417.70747269 -78.8102523 417.6587072 -76.83203125 417.609375 C-75.64327393 417.58842773 -74.4545166 417.56748047 -73.22973633 417.54589844 C-69.41561938 416.90122647 -67.74018147 415.67784054 -65 413 C-63.7250249 410.45004981 -63.86089403 408.64216546 -63.84178162 405.78622437 C-63.8319928 404.68122086 -63.82220398 403.57621735 -63.81211853 402.43772888 C-63.80636307 401.21997269 -63.8006076 400.00221649 -63.79467773 398.74755859 C-63.78477814 397.4695488 -63.77487854 396.191539 -63.76467896 394.87480164 C-63.73760125 391.36472155 -63.71660724 387.85462799 -63.69667697 384.34450102 C-63.67483506 380.67826081 -63.6474376 377.0120623 -63.62062073 373.34585571 C-63.57066952 366.40087393 -63.52573972 359.45586903 -63.48259836 352.51084197 C-63.43324671 344.60523533 -63.37832091 336.69967053 -63.32291877 328.79410434 C-63.20906145 312.52944004 -63.10296652 296.26473745 -63 280 C-76.2 280 -89.4 280 -103 280 C-102.96519531 283.85429687 -102.93039063 287.70859375 -102.89453125 291.6796875 C-102.87109683 295.43619039 -102.85290232 299.19268496 -102.83520508 302.94921875 C-102.82017169 305.54854003 -102.79973954 308.14783617 -102.77368164 310.74707031 C-102.73705899 314.49550605 -102.72021848 318.24360472 -102.70703125 321.9921875 C-102.69154739 323.14363251 -102.67606354 324.29507751 -102.66011047 325.48141479 C-102.65790539 336.18978447 -104.4438831 345.05780413 -112 353 C-118.19304447 357.90282687 -123.76717418 359.25786261 -131.5859375 359.1953125 C-132.63861313 359.19106766 -132.63861313 359.19106766 -133.71255493 359.18673706 C-135.93355028 359.17562512 -138.15412845 359.15053834 -140.375 359.125 C-141.88931705 359.11495854 -143.40364049 359.10583473 -144.91796875 359.09765625 C-148.61211258 359.07571554 -152.30601551 359.04124875 -156 359 C-156.29648438 359.928125 -156.59296875 360.85625 -156.8984375 361.8125 C-159.84164655 370.32901981 -165.70678506 374.42407104 -173.125 378.875 C-180.02572983 381.51816945 -189.07812517 381.17513014 -195.875 378.4375 C-204.83280545 373.68335744 -209.83204826 367.50385521 -213 358 C-213.86779066 346.93211256 -212.70619385 339.36284473 -205.75 330.6875 C-200.74599842 325.28533055 -194.64766192 322.41569997 -187.3359375 321.76171875 C-177.79488912 321.52256318 -169.74802097 323.4473201 -162.64916992 330.13720703 C-160.82116958 332.20199498 -159.60210671 334.27892144 -158.30078125 336.70703125 C-157.64783081 337.91516479 -157.64783081 337.91516479 -156.98168945 339.14770508 C-156.65773193 339.7589624 -156.33377441 340.37021973 -156 341 C-151.96166211 341.0992502 -147.92380128 341.17164562 -143.88452148 341.21972656 C-142.51199977 341.2397799 -141.13956283 341.26703028 -139.76733398 341.30175781 C-137.78927956 341.35054552 -135.81058881 341.37088876 -133.83203125 341.390625 C-132.04889526 341.4220459 -132.04889526 341.4220459 -130.22973633 341.45410156 C-126.32352427 340.90488738 -124.71246855 339.82689645 -122 337 C-120.93552132 333.90135529 -120.84899163 330.93949809 -120.79467773 327.68066406 C-120.77473251 326.61986633 -120.75478729 325.5590686 -120.73423767 324.46612549 C-120.71752518 323.32746033 -120.70081268 322.18879517 -120.68359375 321.015625 C-120.6524221 319.25952911 -120.6524221 319.25952911 -120.62062073 317.46795654 C-120.55524372 313.72869731 -120.49629509 309.98936795 -120.4375 306.25 C-120.39430353 303.7148365 -120.35068888 301.17968009 -120.30664062 298.64453125 C-120.19957441 292.4297616 -120.0977859 286.21492222 -120 280 C-121.27045166 280.00290039 -122.54090332 280.00580078 -123.84985352 280.00878906 C-134.21535628 280.02572791 -144.57477396 280.0155629 -154.9375 279.75 C-156.12150391 279.73582031 -157.30550781 279.72164063 -158.52539062 279.70703125 C-176.50123176 279.21454245 -190.2618742 272.36540956 -203 260 C-203.61488281 259.45859375 -204.22976562 258.9171875 -204.86328125 258.359375 C-213.84350542 250.18427437 -220.15986234 238.3848787 -224 227 C-224.31839844 226.06671875 -224.63679688 225.1334375 -224.96484375 224.171875 C-230.81327521 203.58108404 -227.41531553 181.30175322 -217.25390625 162.7578125 C-206.97288622 145.07283969 -190.67296742 133.96404348 -171.125 128.6875 C-166.43278729 127.48657731 -161.80357237 126.62041024 -157 126 C-156.96261719 124.69289062 -156.92523438 123.38578125 -156.88671875 122.0390625 C-155.6696213 86.46159394 -145.7379861 57.2812733 -121 31 C-120.47277344 30.40832031 -119.94554687 29.81664062 -119.40234375 29.20703125 C-106.07309431 14.85507725 -87.50312758 5.60882292 -69 0 C-67.16115234 -0.58974609 -67.16115234 -0.58974609 -65.28515625 -1.19140625 C-45.22972126 -6.96917647 -19.79775723 -6.35688742 0 0 Z " fill="#000000" transform="translate(257,4)"/>
<path d="M0 0 C4.04119551 0.84191573 5.39262039 2.46996307 8 5.625 C8.65787411 8.5632925 8.65787411 8.5632925 8.70359802 11.87290955 C8.73218179 13.13044572 8.76076555 14.38798189 8.79021549 15.68362522 C8.79628015 17.07024933 8.80165008 18.45687661 8.80639648 19.84350586 C8.82896023 21.31353827 8.85338632 22.78354311 8.87953091 24.2535162 C8.94216934 28.22497634 8.97090914 32.19594096 8.98854589 36.16783285 C8.99988475 38.60027649 9.01691463 41.03261757 9.03554153 43.46501541 C9.11781496 54.74633395 9.11895745 66.02704546 9.10139394 77.30859113 C9.09501078 82.12507299 9.09454508 86.94155595 9.09336853 91.75804138 C9.09029825 100.81989439 9.08214485 109.8817349 9.07201904 118.94358248 C9.06072173 129.28514079 9.05531365 139.62669981 9.05032361 149.96826279 C9.03995702 171.18718209 9.02244383 192.40609025 9 213.625 C9.77794922 213.76292969 10.55589844 213.90085937 11.35742188 214.04296875 C16.88696161 215.26085703 21.42486404 219.41460874 24.65625 223.94921875 C29.30176621 232.11938534 30.69174185 240.91917991 28.3515625 250.1953125 C24.99311508 258.43355532 19.16597711 265.10985149 11.00390625 268.7734375 C3.13232014 271.00491445 -5.95526156 271.02907397 -13.5 267.6875 C-20.17055314 263.705416 -26.29151806 257.48060741 -28.59765625 249.9140625 C-30.33724808 240.01696725 -29.19845576 231.40827017 -23.90234375 222.8515625 C-20.20587878 217.91458895 -14.78776173 214.55425391 -9 212.625 C-8.99918285 211.03167957 -8.99918285 211.03167957 -8.99834919 209.40617085 C-8.98396222 183.57593023 -8.94098067 157.74585831 -8.86790943 131.91571522 C-8.83323684 119.42450312 -8.80790092 106.93340163 -8.80444336 94.44213867 C-8.80140663 83.55642286 -8.78095532 72.67090393 -8.73947543 61.78526419 C-8.71811742 56.01983151 -8.7055593 50.25467894 -8.71384621 44.48920631 C-8.72136846 39.06445907 -8.70563756 33.64028022 -8.67193985 28.21563721 C-8.66368458 26.22302106 -8.66398239 24.23034863 -8.67340279 22.23773766 C-8.68498349 19.51941553 -8.66597029 16.80296906 -8.63923645 14.08479309 C-8.65524634 12.89849996 -8.65524634 12.89849996 -8.67157966 11.6882413 C-8.5977954 7.67461789 -8.16027423 5.82868863 -5.64754772 2.63532543 C-3 0.625 -3 0.625 0 0 Z " fill="#000000" transform="translate(256,242.375)"/>
<path d="M0 0 C4.57599407 1.83039763 6.71578529 4.68537221 9 9 C9.77602275 13.55913363 8.66444051 16.6424926 6.26171875 20.453125 C3.32336885 24.05556018 -0.04538644 24.8806733 -4.5 25.4375 C-8.76506 24.9043675 -10.75593838 23.80168958 -14 21 C-16.64201025 16.94891762 -17.70236884 13.8162435 -17 9 C-12.69834342 1.16483981 -8.76393156 -1.13082988 0 0 Z " fill="#C31029" transform="translate(260,471)"/>
<path d="M0 0 C3.89697826 2.13951748 6.64242605 4.23603467 9 8 C9.79828193 12.03132375 9.90440654 16.17629956 8.05078125 19.9140625 C5.53184 23.14021439 2.98837645 25.16522353 -1 26 C-6.04100928 26 -8.77509853 25.66414758 -12.4375 22.125 C-15.17724973 19.15382727 -15.92829668 16.76005521 -16.3125 12.6875 C-15.93568959 8.24113718 -14.90226622 6.36051878 -12 3 C-7.94891762 0.35798975 -4.8162435 -0.70236884 0 0 Z " fill="#F4E782" transform="translate(385,418)"/>
<path d="M0 0 C3.14760842 1.99162834 4.91385195 3.77474316 6.3125 7.3125 C6.88046579 12.51885305 6.20118756 15.9296637 3.3125 20.3125 C-0.43584295 23.7200845 -4.36878543 23.87311472 -9.2421875 23.7421875 C-13.23925316 23.03982772 -14.95583621 21.25429178 -17.6875 18.3125 C-19.55208199 14.58333603 -19.24798286 10.37288696 -18.6875 6.3125 C-17.0486201 3.08718435 -14.69827575 1.02982473 -11.75 -1.0625 C-7.36289083 -2.39192702 -4.02914092 -2.09957343 0 0 Z " fill="#27547D" transform="translate(136.6875,419.6875)"/>
<path d="M0 0 C2.96385291 1.80877533 5.42205132 3.84410263 7 7 C7.51037087 11.05380289 7.89274541 15.1774658 6.05859375 18.921875 C3.52207934 22.13426316 0.99100138 24.16467413 -3 25 C-9.71633416 25.10660848 -9.71633416 25.10660848 -12.8125 22.4375 C-16.11255014 18.62974984 -18.28082091 15.91008424 -18 10.75 C-17.53779137 6.82439245 -16.56148397 5.06877629 -13.5625 2.5 C-8.97444396 -0.94822583 -5.63771497 -1.55847779 0 0 Z " fill="#F18B05" transform="translate(78,343)"/>
<path d="M0 0 C3.85764763 1.81129692 6.31333072 4.12355721 7.7890625 8.15625 C8.48615004 12.14741787 8.25475964 15.23278046 6.4375 18.875 C3.10384456 23.14891723 0.33181285 24.65994396 -5 25.4375 C-9.58095052 24.76944472 -12.58405828 22.58074254 -15.64453125 19.1640625 C-18.03768785 15.34328798 -17.75260743 11.34459741 -17 7 C-13.14346109 -0.12745525 -7.53595477 -1.14726476 0 0 Z " fill="#94F2D2" transform="translate(444,343)"/>
</svg>
